<svg width="343" height="19" viewBox="0 0 343 19" fill="#fff" xmlns="http://www.w3.org/2000/svg">
<path opacity="1" d="M31.6699 11.2471C31.6699 12.4684 31.3623 13.4232 30.7471 14.1113C30.1318 14.7949 29.2819 15.1367 28.1973 15.1367C27.5273 15.1367 26.9326 14.9795 26.4131 14.665C25.8936 14.3506 25.4925 13.8994 25.21 13.3115C24.9274 12.7236 24.7861 12.0355 24.7861 11.2471C24.7861 10.0257 25.0915 9.07552 25.7021 8.39648C26.3128 7.71289 27.1605 7.37109 28.2451 7.37109C29.2933 7.37109 30.125 7.71973 30.7402 8.41699C31.36 9.11426 31.6699 10.0576 31.6699 11.2471ZM25.9619 11.2471C25.9619 12.2041 26.1533 12.9333 26.5361 13.4346C26.9189 13.9359 27.4818 14.1865 28.2246 14.1865C28.9674 14.1865 29.5303 13.9382 29.9131 13.4414C30.3005 12.9401 30.4941 12.2087 30.4941 11.2471C30.4941 10.2946 30.3005 9.57227 29.9131 9.08008C29.5303 8.58333 28.9629 8.33496 28.2109 8.33496C27.4681 8.33496 26.9076 8.57878 26.5293 9.06641C26.151 9.55404 25.9619 10.2809 25.9619 11.2471ZM33.2764 10.5088C33.2764 8.86816 33.5179 7.58984 34.001 6.67383C34.484 5.75326 35.2497 5.17904 36.2979 4.95117C37.6012 4.67318 38.7497 4.44759 39.7432 4.27441L39.9551 5.27246C38.3737 5.53678 37.2435 5.74642 36.5645 5.90137C35.9036 6.05176 35.4069 6.40723 35.0742 6.96777C34.7461 7.52832 34.5661 8.29167 34.5342 9.25781H34.6162C34.8988 8.875 35.2633 8.57422 35.71 8.35547C36.1566 8.13672 36.6237 8.02734 37.1113 8.02734C38.0319 8.02734 38.7497 8.32585 39.2646 8.92285C39.7796 9.51986 40.0371 10.347 40.0371 11.4043C40.0371 12.5755 39.7386 13.4915 39.1416 14.1523C38.5446 14.8086 37.7129 15.1367 36.6465 15.1367C35.5938 15.1367 34.7689 14.7334 34.1719 13.9268C33.5749 13.1201 33.2764 11.9808 33.2764 10.5088ZM36.749 14.1865C38.139 14.1865 38.834 13.3001 38.834 11.5273C38.834 9.83659 38.2028 8.99121 36.9404 8.99121C36.5941 8.99121 36.2591 9.06413 35.9355 9.20996C35.6165 9.35124 35.3226 9.54036 35.0537 9.77734C34.7894 10.0143 34.5843 10.2581 34.4385 10.5088C34.4385 11.7074 34.6276 12.6211 35.0059 13.25C35.3841 13.8743 35.9652 14.1865 36.749 14.1865ZM45.5059 15.1367C45.0182 15.1367 44.5716 15.0479 44.166 14.8701C43.765 14.6878 43.4277 14.4098 43.1543 14.0361H43.0723C43.127 14.4736 43.1543 14.8883 43.1543 15.2803V18.3633H42.0195V7.50781H42.9424L43.0996 8.5332H43.1543C43.446 8.12305 43.7855 7.82682 44.1729 7.64453C44.5602 7.46224 45.0046 7.37109 45.5059 7.37109C46.4993 7.37109 47.265 7.71061 47.8027 8.38965C48.3451 9.06868 48.6162 10.0212 48.6162 11.2471C48.6162 12.4775 48.3405 13.4346 47.7891 14.1182C47.2422 14.7972 46.4811 15.1367 45.5059 15.1367ZM45.3418 8.33496C44.5762 8.33496 44.0225 8.54688 43.6807 8.9707C43.3389 9.39453 43.1634 10.069 43.1543 10.9941V11.2471C43.1543 12.2998 43.3298 13.054 43.6807 13.5098C44.0316 13.9609 44.5944 14.1865 45.3691 14.1865C46.0163 14.1865 46.5221 13.9245 46.8867 13.4004C47.2559 12.8763 47.4404 12.154 47.4404 11.2334C47.4404 10.2992 47.2559 9.58366 46.8867 9.08691C46.5221 8.58561 46.0072 8.33496 45.3418 8.33496ZM55.2129 15L54.9873 13.9336H54.9326C54.5589 14.403 54.1852 14.722 53.8115 14.8906C53.4424 15.0547 52.9798 15.1367 52.4238 15.1367C51.681 15.1367 51.0977 14.9453 50.6738 14.5625C50.2546 14.1797 50.0449 13.6351 50.0449 12.9287C50.0449 11.4157 51.2549 10.6227 53.6748 10.5498L54.9463 10.5088V10.0439C54.9463 9.45605 54.8187 9.02311 54.5635 8.74512C54.3128 8.46257 53.9095 8.32129 53.3535 8.32129C52.7292 8.32129 52.0228 8.5127 51.2344 8.89551L50.8857 8.02734C51.2549 7.82682 51.6582 7.6696 52.0957 7.55566C52.5378 7.44173 52.9798 7.38477 53.4219 7.38477C54.3151 7.38477 54.9759 7.58301 55.4043 7.97949C55.8372 8.37598 56.0537 9.01172 56.0537 9.88672V15H55.2129ZM52.6494 14.2002C53.3558 14.2002 53.9095 14.0065 54.3105 13.6191C54.7161 13.2318 54.9189 12.6895 54.9189 11.9922V11.3154L53.7842 11.3633C52.8818 11.3952 52.2301 11.5365 51.8291 11.7871C51.4326 12.0332 51.2344 12.4183 51.2344 12.9424C51.2344 13.3525 51.3574 13.6647 51.6035 13.8789C51.8542 14.0931 52.2028 14.2002 52.6494 14.2002ZM59.8271 10.6182C61.2445 10.6182 61.9531 10.2262 61.9531 9.44238C61.9531 8.7041 61.3789 8.33496 60.2305 8.33496C59.8796 8.33496 59.5605 8.36686 59.2734 8.43066C58.9863 8.49447 58.6104 8.62207 58.1455 8.81348L57.7422 7.89062C58.5169 7.54427 59.3623 7.37109 60.2783 7.37109C61.1396 7.37109 61.8187 7.54883 62.3154 7.9043C62.8122 8.25521 63.0605 8.736 63.0605 9.34668C63.0605 10.1852 62.5934 10.7344 61.6592 10.9941V11.0488C62.2334 11.2174 62.6527 11.459 62.917 11.7734C63.1813 12.0833 63.3135 12.473 63.3135 12.9424C63.3135 13.6351 63.0332 14.1751 62.4727 14.5625C61.9167 14.9453 61.1465 15.1367 60.1621 15.1367C59.082 15.1367 58.248 14.9749 57.6602 14.6514V13.6123C58.4941 14.0042 59.3372 14.2002 60.1895 14.2002C60.8457 14.2002 61.3402 14.0885 61.6729 13.8652C62.0101 13.6374 62.1787 13.3115 62.1787 12.8877C62.1787 12.0173 61.4701 11.582 60.0527 11.582H59.0137V10.6182H59.8271ZM72.4736 17.5908H71.3389V15H65.166V7.50781H66.3008V14.0225H70.2793V7.50781H71.4141V14.0225H72.4736V17.5908ZM75.0645 10.6045H77.1084C78.0609 10.6045 78.765 10.7822 79.2207 11.1377C79.681 11.4886 79.9111 12.015 79.9111 12.7168C79.9111 13.4688 79.6673 14.0384 79.1797 14.4258C78.6966 14.8086 77.9834 15 77.04 15H73.9297V7.50781H75.0645V10.6045ZM82.3037 15H81.1689V7.50781H82.3037V15ZM75.0645 11.582V14.0498H76.9854C78.1885 14.0498 78.79 13.6283 78.79 12.7852C78.79 12.3659 78.651 12.0605 78.373 11.8691C78.0951 11.6777 77.6211 11.582 76.9512 11.582H75.0645ZM89.4883 15.1367C88.7272 15.1367 88.0778 15.0068 87.54 14.7471V13.7422C87.8135 13.847 88.1097 13.9404 88.4287 14.0225C88.7477 14.1045 89.1146 14.1455 89.5293 14.1455C90.3223 14.1455 90.9329 13.9336 91.3613 13.5098C91.7943 13.0859 92.0335 12.4525 92.0791 11.6094H88.2852V10.6455H92.0654C91.9925 9.86165 91.7624 9.28743 91.375 8.92285C90.9922 8.55827 90.4339 8.37598 89.7002 8.37598C89.2308 8.37598 88.652 8.49902 87.9639 8.74512L87.6426 7.78809C87.8932 7.6696 88.2054 7.57161 88.5791 7.49414C88.9528 7.41211 89.3219 7.37109 89.6865 7.37109C90.8532 7.37109 91.7396 7.70605 92.3457 8.37598C92.9518 9.04134 93.2549 10.0029 93.2549 11.2607C93.2549 12.4867 92.9245 13.4391 92.2637 14.1182C91.6074 14.7972 90.6823 15.1367 89.4883 15.1367ZM100.296 8.47852H97.8623V15H96.7275V8.47852H94.3213V7.50781H100.296V8.47852ZM108.246 11.2471C108.246 12.4684 107.938 13.4232 107.323 14.1113C106.708 14.7949 105.858 15.1367 104.773 15.1367C104.104 15.1367 103.509 14.9795 102.989 14.665C102.47 14.3506 102.069 13.8994 101.786 13.3115C101.504 12.7236 101.362 12.0355 101.362 11.2471C101.362 10.0257 101.668 9.07552 102.278 8.39648C102.889 7.71289 103.737 7.37109 104.821 7.37109C105.869 7.37109 106.701 7.71973 107.316 8.41699C107.936 9.11426 108.246 10.0576 108.246 11.2471ZM102.538 11.2471C102.538 12.2041 102.729 12.9333 103.112 13.4346C103.495 13.9359 104.058 14.1865 104.801 14.1865C105.544 14.1865 106.106 13.9382 106.489 13.4414C106.877 12.9401 107.07 12.2087 107.07 11.2471C107.07 10.2946 106.877 9.57227 106.489 9.08008C106.106 8.58333 105.539 8.33496 104.787 8.33496C104.044 8.33496 103.484 8.57878 103.105 9.06641C102.727 9.55404 102.538 10.2809 102.538 11.2471ZM111.309 7.50781V12.2588L111.261 13.5029L111.24 13.8926L115.294 7.50781H116.709V15H115.649V10.4199L115.67 9.51758L115.704 8.62891L111.657 15H110.242V7.50781H111.309ZM113.448 6.5166C112.605 6.5166 111.99 6.35482 111.603 6.03125C111.215 5.70312 110.999 5.16536 110.953 4.41797H112.02C112.061 4.89193 112.184 5.22233 112.389 5.40918C112.598 5.59603 112.961 5.68945 113.476 5.68945C113.945 5.68945 114.291 5.58919 114.515 5.38867C114.743 5.18815 114.882 4.86458 114.932 4.41797H116.005C115.95 5.13802 115.72 5.66895 115.314 6.01074C114.909 6.34798 114.287 6.5166 113.448 6.5166ZM126.642 13.9062L126.854 13.2705L127.147 12.4639L129.178 7.52148H130.62V15H129.615V8.81348L129.479 9.20996L129.082 10.2559L127.147 15H126.197L124.263 10.2422C124.021 9.63151 123.855 9.15527 123.764 8.81348V15H122.752V7.52148H124.14L126.102 12.2725C126.298 12.7738 126.478 13.3184 126.642 13.9062ZM139.514 11.2471C139.514 12.4684 139.206 13.4232 138.591 14.1113C137.976 14.7949 137.126 15.1367 136.041 15.1367C135.371 15.1367 134.776 14.9795 134.257 14.665C133.737 14.3506 133.336 13.8994 133.054 13.3115C132.771 12.7236 132.63 12.0355 132.63 11.2471C132.63 10.0257 132.935 9.07552 133.546 8.39648C134.157 7.71289 135.004 7.37109 136.089 7.37109C137.137 7.37109 137.969 7.71973 138.584 8.41699C139.204 9.11426 139.514 10.0576 139.514 11.2471ZM133.806 11.2471C133.806 12.2041 133.997 12.9333 134.38 13.4346C134.763 13.9359 135.326 14.1865 136.068 14.1865C136.811 14.1865 137.374 13.9382 137.757 13.4414C138.144 12.9401 138.338 12.2087 138.338 11.2471C138.338 10.2946 138.144 9.57227 137.757 9.08008C137.374 8.58333 136.807 8.33496 136.055 8.33496C135.312 8.33496 134.751 8.57878 134.373 9.06641C133.995 9.55404 133.806 10.2809 133.806 11.2471ZM148.018 17.5908H146.917V15H141.681V17.5908H140.587V14.0225H141.175C141.785 13.193 142.264 12.2201 142.61 11.1035C142.957 9.98698 143.137 8.78841 143.15 7.50781H146.944V14.0225H148.018V17.5908ZM145.851 14.0225V8.40332H144.169C144.11 9.41504 143.914 10.4404 143.581 11.4795C143.253 12.514 142.843 13.3617 142.351 14.0225H145.851ZM152.687 15.1367C151.579 15.1367 150.704 14.7995 150.062 14.125C149.424 13.4505 149.104 12.514 149.104 11.3154C149.104 10.1077 149.401 9.14844 149.993 8.4375C150.59 7.72656 151.39 7.37109 152.393 7.37109C153.331 7.37109 154.074 7.68099 154.621 8.30078C155.168 8.91602 155.441 9.72949 155.441 10.7412V11.459H150.28C150.303 12.3385 150.524 13.0062 150.943 13.4619C151.367 13.9176 151.962 14.1455 152.728 14.1455C153.534 14.1455 154.332 13.9769 155.12 13.6396V14.6514C154.719 14.8245 154.339 14.9476 153.979 15.0205C153.623 15.098 153.192 15.1367 152.687 15.1367ZM152.379 8.32129C151.777 8.32129 151.297 8.51725 150.937 8.90918C150.581 9.30111 150.371 9.84342 150.308 10.5361H154.225C154.225 9.82064 154.065 9.27376 153.746 8.89551C153.427 8.5127 152.971 8.32129 152.379 8.32129ZM162.968 15H161.819V8.47852H159.57C159.447 10.1009 159.276 11.3883 159.058 12.3408C158.839 13.2933 158.554 13.9906 158.203 14.4326C157.857 14.8747 157.415 15.0957 156.877 15.0957C156.631 15.0957 156.435 15.0684 156.289 15.0137V14.1729C156.389 14.2002 156.503 14.2139 156.631 14.2139C157.155 14.2139 157.572 13.6602 157.882 12.5527C158.192 11.4453 158.426 9.76367 158.586 7.50781H162.968V15ZM166.447 7.50781V12.2588L166.399 13.5029L166.379 13.8926L170.433 7.50781H171.848V15H170.788V10.4199L170.809 9.51758L170.843 8.62891L166.796 15H165.381V7.50781H166.447ZM179.025 15H177.891V7.50781H184.18V15H183.031V8.49219H179.025V15ZM190.072 15.1367C189.585 15.1367 189.138 15.0479 188.732 14.8701C188.331 14.6878 187.994 14.4098 187.721 14.0361H187.639C187.693 14.4736 187.721 14.8883 187.721 15.2803V18.3633H186.586V7.50781H187.509L187.666 8.5332H187.721C188.012 8.12305 188.352 7.82682 188.739 7.64453C189.127 7.46224 189.571 7.37109 190.072 7.37109C191.066 7.37109 191.831 7.71061 192.369 8.38965C192.911 9.06868 193.183 10.0212 193.183 11.2471C193.183 12.4775 192.907 13.4346 192.355 14.1182C191.809 14.7972 191.048 15.1367 190.072 15.1367ZM189.908 8.33496C189.143 8.33496 188.589 8.54688 188.247 8.9707C187.905 9.39453 187.73 10.069 187.721 10.9941V11.2471C187.721 12.2998 187.896 13.054 188.247 13.5098C188.598 13.9609 189.161 14.1865 189.936 14.1865C190.583 14.1865 191.089 13.9245 191.453 13.4004C191.822 12.8763 192.007 12.154 192.007 11.2334C192.007 10.2992 191.822 9.58366 191.453 9.08691C191.089 8.58561 190.574 8.33496 189.908 8.33496ZM198.337 15.1367C197.229 15.1367 196.354 14.7995 195.712 14.125C195.074 13.4505 194.755 12.514 194.755 11.3154C194.755 10.1077 195.051 9.14844 195.644 8.4375C196.241 7.72656 197.04 7.37109 198.043 7.37109C198.982 7.37109 199.725 7.68099 200.271 8.30078C200.818 8.91602 201.092 9.72949 201.092 10.7412V11.459H195.931C195.953 12.3385 196.174 13.0062 196.594 13.4619C197.018 13.9176 197.612 14.1455 198.378 14.1455C199.185 14.1455 199.982 13.9769 200.771 13.6396V14.6514C200.369 14.8245 199.989 14.9476 199.629 15.0205C199.273 15.098 198.843 15.1367 198.337 15.1367ZM198.029 8.32129C197.428 8.32129 196.947 8.51725 196.587 8.90918C196.231 9.30111 196.022 9.84342 195.958 10.5361H199.875C199.875 9.82064 199.715 9.27376 199.396 8.89551C199.077 8.5127 198.622 8.32129 198.029 8.32129ZM209.541 17.5908H208.44V15H203.204V17.5908H202.11V14.0225H202.698C203.309 13.193 203.787 12.2201 204.134 11.1035C204.48 9.98698 204.66 8.78841 204.674 7.50781H208.468V14.0225H209.541V17.5908ZM207.374 14.0225V8.40332H205.692C205.633 9.41504 205.437 10.4404 205.104 11.4795C204.776 12.514 204.366 13.3617 203.874 14.0225H207.374ZM214.039 15.1367C212.954 15.1367 212.114 14.804 211.517 14.1387C210.924 13.4688 210.628 12.5231 210.628 11.3018C210.628 10.0485 210.929 9.08008 211.53 8.39648C212.136 7.71289 212.998 7.37109 214.114 7.37109C214.474 7.37109 214.834 7.40983 215.194 7.4873C215.554 7.56478 215.837 7.65592 216.042 7.76074L215.693 8.72461C215.443 8.62435 215.169 8.54232 214.873 8.47852C214.577 8.41016 214.315 8.37598 214.087 8.37598C212.565 8.37598 211.804 9.34668 211.804 11.2881C211.804 12.2087 211.988 12.915 212.357 13.4072C212.731 13.8994 213.283 14.1455 214.012 14.1455C214.636 14.1455 215.276 14.0111 215.933 13.7422V14.7471C215.431 15.0068 214.8 15.1367 214.039 15.1367ZM222.769 8.47852H220.335V15H219.2V8.47852H216.794V7.50781H222.769V8.47852ZM228.859 15L228.634 13.9336H228.579C228.205 14.403 227.832 14.722 227.458 14.8906C227.089 15.0547 226.626 15.1367 226.07 15.1367C225.327 15.1367 224.744 14.9453 224.32 14.5625C223.901 14.1797 223.691 13.6351 223.691 12.9287C223.691 11.4157 224.901 10.6227 227.321 10.5498L228.593 10.5088V10.0439C228.593 9.45605 228.465 9.02311 228.21 8.74512C227.959 8.46257 227.556 8.32129 227 8.32129C226.376 8.32129 225.669 8.5127 224.881 8.89551L224.532 8.02734C224.901 7.82682 225.305 7.6696 225.742 7.55566C226.184 7.44173 226.626 7.38477 227.068 7.38477C227.962 7.38477 228.622 7.58301 229.051 7.97949C229.484 8.37598 229.7 9.01172 229.7 9.88672V15H228.859ZM226.296 14.2002C227.002 14.2002 227.556 14.0065 227.957 13.6191C228.363 13.2318 228.565 12.6895 228.565 11.9922V11.3154L227.431 11.3633C226.528 11.3952 225.877 11.5365 225.476 11.7871C225.079 12.0332 224.881 12.4183 224.881 12.9424C224.881 13.3525 225.004 13.6647 225.25 13.8789C225.501 14.0931 225.849 14.2002 226.296 14.2002ZM238.122 9.3877C238.122 9.87533 237.981 10.2467 237.698 10.502C237.42 10.7526 237.028 10.9212 236.522 11.0078V11.0693C237.16 11.1559 237.625 11.3428 237.917 11.6299C238.213 11.917 238.361 12.3135 238.361 12.8193C238.361 13.5166 238.104 14.0544 237.589 14.4326C237.078 14.8109 236.331 15 235.347 15H232.045V7.50781H235.333C237.192 7.50781 238.122 8.13444 238.122 9.3877ZM237.227 12.7441C237.227 12.3385 237.072 12.0446 236.762 11.8623C236.456 11.6755 235.948 11.582 235.237 11.582H233.18V14.0498H235.265C236.573 14.0498 237.227 13.6146 237.227 12.7441ZM237.015 9.49707C237.015 9.13249 236.873 8.875 236.591 8.72461C236.313 8.56966 235.889 8.49219 235.319 8.49219H233.18V10.6045H235.101C235.802 10.6045 236.297 10.5179 236.584 10.3447C236.871 10.1715 237.015 9.889 237.015 9.49707ZM245.601 15H244.452V8.47852H242.203C242.08 10.1009 241.909 11.3883 241.69 12.3408C241.472 13.2933 241.187 13.9906 240.836 14.4326C240.49 14.8747 240.048 15.0957 239.51 15.0957C239.264 15.0957 239.068 15.0684 238.922 15.0137V14.1729C239.022 14.2002 239.136 14.2139 239.264 14.2139C239.788 14.2139 240.205 13.6602 240.515 12.5527C240.825 11.4453 241.059 9.76367 241.219 7.50781H245.601V15ZM251.179 15.1367C250.071 15.1367 249.196 14.7995 248.554 14.125C247.916 13.4505 247.597 12.514 247.597 11.3154C247.597 10.1077 247.893 9.14844 248.485 8.4375C249.082 7.72656 249.882 7.37109 250.885 7.37109C251.824 7.37109 252.566 7.68099 253.113 8.30078C253.66 8.91602 253.934 9.72949 253.934 10.7412V11.459H248.772C248.795 12.3385 249.016 13.0062 249.436 13.4619C249.859 13.9176 250.454 14.1455 251.22 14.1455C252.026 14.1455 252.824 13.9769 253.612 13.6396V14.6514C253.211 14.8245 252.831 14.9476 252.471 15.0205C252.115 15.098 251.685 15.1367 251.179 15.1367ZM250.871 8.32129C250.27 8.32129 249.789 8.51725 249.429 8.90918C249.073 9.30111 248.864 9.84342 248.8 10.5361H252.717C252.717 9.82064 252.557 9.27376 252.238 8.89551C251.919 8.5127 251.464 8.32129 250.871 8.32129ZM257.01 7.50781V10.6455H261.207V7.50781H262.342V15H261.207V11.623H257.01V15H255.875V7.50781H257.01ZM265.883 10.6045H267.927C268.879 10.6045 269.583 10.7822 270.039 11.1377C270.499 11.4886 270.729 12.015 270.729 12.7168C270.729 13.4688 270.486 14.0384 269.998 14.4258C269.515 14.8086 268.802 15 267.858 15H264.748V7.50781H265.883V10.6045ZM273.122 15H271.987V7.50781H273.122V15ZM265.883 11.582V14.0498H267.804C269.007 14.0498 269.608 13.6283 269.608 12.7852C269.608 12.3659 269.469 12.0605 269.191 11.8691C268.913 11.6777 268.439 11.582 267.77 11.582H265.883ZM285.249 9.3877C285.249 9.87533 285.108 10.2467 284.825 10.502C284.547 10.7526 284.155 10.9212 283.649 11.0078V11.0693C284.287 11.1559 284.752 11.3428 285.044 11.6299C285.34 11.917 285.488 12.3135 285.488 12.8193C285.488 13.5166 285.231 14.0544 284.716 14.4326C284.205 14.8109 283.458 15 282.474 15H279.172V7.50781H282.46C284.319 7.50781 285.249 8.13444 285.249 9.3877ZM284.354 12.7441C284.354 12.3385 284.199 12.0446 283.889 11.8623C283.583 11.6755 283.075 11.582 282.364 11.582H280.307V14.0498H282.392C283.7 14.0498 284.354 13.6146 284.354 12.7441ZM284.142 9.49707C284.142 9.13249 284 8.875 283.718 8.72461C283.44 8.56966 283.016 8.49219 282.446 8.49219H280.307V10.6045H282.228C282.929 10.6045 283.424 10.5179 283.711 10.3447C283.998 10.1715 284.142 9.889 284.142 9.49707ZM293.773 15.1367C292.689 15.1367 291.848 14.804 291.251 14.1387C290.659 13.4688 290.362 12.5231 290.362 11.3018C290.362 10.0485 290.663 9.08008 291.265 8.39648C291.871 7.71289 292.732 7.37109 293.849 7.37109C294.209 7.37109 294.569 7.40983 294.929 7.4873C295.289 7.56478 295.571 7.65592 295.776 7.76074L295.428 8.72461C295.177 8.62435 294.904 8.54232 294.607 8.47852C294.311 8.41016 294.049 8.37598 293.821 8.37598C292.299 8.37598 291.538 9.34668 291.538 11.2881C291.538 12.2087 291.723 12.915 292.092 13.4072C292.465 13.8994 293.017 14.1455 293.746 14.1455C294.37 14.1455 295.011 14.0111 295.667 13.7422V14.7471C295.166 15.0068 294.535 15.1367 293.773 15.1367ZM302.503 8.47852H300.069V15H298.935V8.47852H296.528V7.50781H302.503V8.47852ZM302.797 7.50781H304.014L305.654 11.7803C306.014 12.7555 306.238 13.4596 306.324 13.8926H306.379C306.438 13.6602 306.561 13.2637 306.748 12.7031C306.939 12.138 307.559 10.4062 308.607 7.50781H309.824L306.604 16.0391C306.285 16.8822 305.912 17.4792 305.483 17.8301C305.06 18.1855 304.538 18.3633 303.918 18.3633C303.572 18.3633 303.23 18.3245 302.893 18.2471V17.3379C303.143 17.3926 303.424 17.4199 303.733 17.4199C304.513 17.4199 305.069 16.9824 305.401 16.1074L305.818 15.041L302.797 7.50781ZM317.549 17.5908H316.448V15H311.212V17.5908H310.118V14.0225H310.706C311.317 13.193 311.795 12.2201 312.142 11.1035C312.488 9.98698 312.668 8.78841 312.682 7.50781H316.476V14.0225H317.549V17.5908ZM315.382 14.0225V8.40332H313.7C313.641 9.41504 313.445 10.4404 313.112 11.4795C312.784 12.514 312.374 13.3617 311.882 14.0225H315.382ZM320.119 7.50781V12.2588L320.071 13.5029L320.051 13.8926L324.104 7.50781H325.52V15H324.46V10.4199L324.48 9.51758L324.515 8.62891L320.468 15H319.053V7.50781H320.119ZM328.992 7.50781V12.2588L328.944 13.5029L328.924 13.8926L332.978 7.50781H334.393V15H333.333V10.4199L333.354 9.51758L333.388 8.62891L329.341 15H327.926V7.50781H328.992Z" fill="#fff"/>
</svg>
