<svg width="25" height="25" viewBox="0 0 25 25" fill="none" xmlns="http://www.w3.org/2000/svg">
<path d="M21.7084 4.80215C21.1763 4.26987 20.5446 3.84762 19.8493 3.55953C19.1541 3.27145 18.4089 3.12317 17.6563 3.12317C16.9037 3.12317 16.1585 3.27145 15.4632 3.55953C14.7679 3.84762 14.1362 4.26987 13.6042 4.80215L12.5 5.90632L11.3959 4.80215C10.3212 3.72747 8.86361 3.12373 7.34379 3.12373C5.82396 3.12373 4.36639 3.72747 3.29171 4.80215C2.21703 5.87683 1.61328 7.33441 1.61328 8.85424C1.61328 10.3741 2.21703 11.8316 3.29171 12.9063L4.39587 14.0105L12.5 22.1147L20.6042 14.0105L21.7084 12.9063C22.2406 12.3743 22.6629 11.7426 22.951 11.0473C23.2391 10.352 23.3873 9.60683 23.3873 8.85424C23.3873 8.10164 23.2391 7.35643 22.951 6.66116C22.6629 5.96589 22.2406 5.33419 21.7084 4.80215Z" fill="#020F59"/>
</svg>
