<svg width="68" height="31" viewBox="0 0 68 31" fill="none" xmlns="http://www.w3.org/2000/svg">
<g opacity="0.9">
<path d="M52.9639 12.5719C61.0837 14.3263 66.3567 17.16 66.3567 20.3572C66.3567 25.6827 51.7261 30 33.6783 30C15.6306 30 1 25.6827 1 20.3572C1 17.16 6.273 14.3263 14.3928 12.5719" stroke="#020F59" stroke-width="2"/>
<path d="M26.0859 8.20312C26.0859 8.92708 25.875 9.53125 25.4531 10.0156C25.0312 10.4948 24.4375 10.8177 23.6719 10.9844V11.0469C24.5885 11.1615 25.276 11.4479 25.7344 11.9062C26.1927 12.3594 26.4219 12.9635 26.4219 13.7188C26.4219 14.8177 26.0339 15.6667 25.2578 16.2656C24.4818 16.8594 23.3776 17.1562 21.9453 17.1562C20.6797 17.1562 19.612 16.9505 18.7422 16.5391V14.9062C19.2266 15.1458 19.7396 15.3307 20.2812 15.4609C20.8229 15.5911 21.3438 15.6562 21.8438 15.6562C22.7292 15.6562 23.3906 15.4922 23.8281 15.1641C24.2656 14.8359 24.4844 14.3281 24.4844 13.6406C24.4844 13.0312 24.2422 12.5833 23.7578 12.2969C23.2734 12.0104 22.513 11.8672 21.4766 11.8672H20.4844V10.375H21.4922C23.3151 10.375 24.2266 9.74479 24.2266 8.48438C24.2266 7.99479 24.0677 7.61719 23.75 7.35156C23.4323 7.08594 22.9635 6.95312 22.3438 6.95312C21.9115 6.95312 21.4948 7.01562 21.0938 7.14062C20.6927 7.26042 20.2188 7.4974 19.6719 7.85156L18.7734 6.57031C19.8203 5.79948 21.0365 5.41406 22.4219 5.41406C23.5729 5.41406 24.4714 5.66146 25.1172 6.15625C25.763 6.65104 26.0859 7.33333 26.0859 8.20312ZM27.9453 12.1328C27.9453 7.66406 29.7656 5.42969 33.4062 5.42969C33.9792 5.42969 34.4635 5.47396 34.8594 5.5625V7.09375C34.4635 6.97917 34.0052 6.92188 33.4844 6.92188C32.2604 6.92188 31.3411 7.25 30.7266 7.90625C30.112 8.5625 29.7786 9.61458 29.7266 11.0625H29.8203C30.0651 10.6406 30.4089 10.3151 30.8516 10.0859C31.2943 9.85156 31.8151 9.73438 32.4141 9.73438C33.4505 9.73438 34.2578 10.0521 34.8359 10.6875C35.4141 11.3229 35.7031 12.1849 35.7031 13.2734C35.7031 14.4714 35.3672 15.4193 34.6953 16.1172C34.0286 16.8099 33.1172 17.1562 31.9609 17.1562C31.1432 17.1562 30.4323 16.9609 29.8281 16.5703C29.224 16.1745 28.7578 15.6016 28.4297 14.8516C28.1068 14.0964 27.9453 13.1901 27.9453 12.1328ZM31.9297 15.6406C32.5599 15.6406 33.0443 15.4375 33.3828 15.0312C33.7266 14.625 33.8984 14.0443 33.8984 13.2891C33.8984 12.6328 33.737 12.1172 33.4141 11.7422C33.0964 11.3672 32.6172 11.1797 31.9766 11.1797C31.5807 11.1797 31.2161 11.2656 30.8828 11.4375C30.5495 11.6042 30.2865 11.8359 30.0938 12.1328C29.901 12.4245 29.8047 12.724 29.8047 13.0312C29.8047 13.7656 30.0026 14.3854 30.3984 14.8906C30.7995 15.3906 31.3099 15.6406 31.9297 15.6406ZM44.7969 11.2891C44.7969 13.2734 44.4766 14.7474 43.8359 15.7109C43.2005 16.6745 42.2266 17.1562 40.9141 17.1562C39.6432 17.1562 38.6797 16.6589 38.0234 15.6641C37.3672 14.6693 37.0391 13.2109 37.0391 11.2891C37.0391 9.27344 37.3568 7.78906 37.9922 6.83594C38.6328 5.8776 39.6068 5.39844 40.9141 5.39844C42.1901 5.39844 43.1562 5.89844 43.8125 6.89844C44.4688 7.89844 44.7969 9.36198 44.7969 11.2891ZM38.8984 11.2891C38.8984 12.8464 39.0573 13.9583 39.375 14.625C39.6979 15.2917 40.2109 15.625 40.9141 15.625C41.6172 15.625 42.1302 15.2865 42.4531 14.6094C42.7812 13.9323 42.9453 12.8255 42.9453 11.2891C42.9453 9.75781 42.7812 8.65104 42.4531 7.96875C42.1302 7.28125 41.6172 6.9375 40.9141 6.9375C40.2109 6.9375 39.6979 7.27344 39.375 7.94531C39.0573 8.61719 38.8984 9.73177 38.8984 11.2891ZM46.3438 7.99219C46.3438 7.28906 46.5911 6.6849 47.0859 6.17969C47.5807 5.66927 48.1901 5.41406 48.9141 5.41406C49.6328 5.41406 50.2396 5.66406 50.7344 6.16406C51.2292 6.66406 51.4766 7.27344 51.4766 7.99219C51.4766 8.71615 51.2266 9.32552 50.7266 9.82031C50.2266 10.3099 49.6224 10.5547 48.9141 10.5547C48.4557 10.5547 48.026 10.4427 47.625 10.2188C47.2292 9.98958 46.9167 9.67708 46.6875 9.28125C46.4583 8.88542 46.3438 8.45573 46.3438 7.99219ZM47.5391 7.99219C47.5391 8.35677 47.6719 8.67448 47.9375 8.94531C48.2031 9.21615 48.5286 9.35156 48.9141 9.35156C49.2995 9.35156 49.625 9.21875 49.8906 8.95312C50.1562 8.68229 50.2891 8.36198 50.2891 7.99219C50.2891 7.59635 50.1536 7.26562 49.8828 7C49.612 6.73438 49.2891 6.60156 48.9141 6.60156C48.5391 6.60156 48.2161 6.73698 47.9453 7.00781C47.6745 7.27865 47.5391 7.60677 47.5391 7.99219Z" fill="#020F59"/>
</g>
</svg>
